<svg width="236" height="216" viewBox="0 0 236 216" fill="none" xmlns="http://www.w3.org/2000/svg">
<path opacity="0.34" d="M35.0781 211.5C54.0025 211.5 69.3438 208.499 69.3438 204.797C69.3438 201.095 54.0025 198.094 35.0781 198.094C16.1537 198.094 0.8125 201.095 0.8125 204.797C0.8125 208.499 16.1537 211.5 35.0781 211.5Z" fill="#575FA8"/>
<path d="M38.8281 192.703L38.125 204.141H58.5625C58.5625 204.141 50.2187 198.562 46.5156 196.781L46.0937 192.75H38.8281V192.703Z" fill="#F08789"/>
<path d="M45.1562 101.953L46.5156 195.797H38.4531C38.4531 195.797 29.5469 159.047 33.9062 148.312L26.125 101.953H45.1562V101.953Z" fill="#32388D"/>
<path opacity="0.2" d="M45.1562 101.953H26.1719L33.9531 148.312C32.4531 152.016 32.5 158.859 33.25 166.219L46.3281 182.203L45.1562 101.953Z" fill="#020203"/>
<path d="M17.2656 194.203L14.125 205.641H36.4375C36.4375 205.641 27.0156 200.063 23.2656 198.281L23.9688 194.25H17.2656V194.203Z" fill="#F08789"/>
<path d="M45.7188 100.781L37.7969 147.844L24.4375 195.797H16.4219C16.4219 195.797 19 149.766 27.25 144.984L20.7344 100.828H45.7188V100.781Z" fill="#32388D"/>
<path opacity="0.2" d="M45.2031 104.016L45.7187 100.781H20.7344L21.2969 104.625L45.25 107.672L45.2031 104.016Z" fill="#020203"/>
<path d="M58.6094 68.2969C58.6094 68.2969 63.5781 60.2812 71.3125 58.4531L68.2656 62.1094C68.2656 62.1094 69.7187 65.9062 67.8906 67.8281C66.0625 69.75 63.1094 69.8906 63.1094 69.8906L61.0469 72.1875L58.6094 68.2969Z" fill="#F5ABAE"/>
<path d="M38.9688 61.7344L45.7656 75.6094L59.0781 66.6094L62.4063 71.7188C62.4063 71.7188 50.8281 93.4688 45.7188 91.875C40.6094 90.2813 36.2031 78.7969 36.2031 78.7969L38.9688 61.7344Z" fill="white"/>
<path opacity="0.2" d="M45.7188 75.6094L38.9219 61.7344L36.2031 78.7969C36.2031 78.7969 40.6094 90.2813 45.7188 91.875C45.8594 91.9219 45.9531 91.9219 46.0937 91.9219L52.2344 71.1562L45.7188 75.6094Z" fill="#020203"/>
<path d="M44.125 28.9688C44.125 28.9688 44.9218 36.0469 45.7187 37.7813H43.5156C43.5156 37.7813 43.7031 44.5782 42.2968 45.4219C41.3125 46.0313 38.4531 45.4219 37.7968 46.2188C37.1406 47.0157 36.1562 52.6875 36.1562 52.6875L27.2968 51.9375L28.1875 44.0157C28.1875 44.0157 23.2187 38.0625 24.7187 30.75C26.2187 23.4375 42.8125 22.1719 44.125 28.9688Z" fill="#F5ABAE"/>
<path opacity="0.2" d="M33.0625 40.7812L26.0781 40.4062C27.1094 42.6094 28.2344 43.9688 28.2344 43.9688L27.3437 51.8906L36.2031 52.6406C36.2031 52.6406 37.1875 46.9688 37.8438 46.1719C38.0781 45.8906 38.6406 45.75 39.2969 45.75C35.875 44.8125 32.7813 40.9687 33.0625 40.7812Z" fill="#020203"/>
<path d="M44.4063 31.3125C44.4063 31.3125 42.5313 32.4375 38.7813 29.9531C38.7813 29.9531 36.25 34.5 34.0469 33.8906C34.0469 33.8906 33.9532 37.125 33.4844 37.3594C33.0157 37.5938 32.0782 34.5938 31.1407 34.4063C30.2032 34.2188 29.2188 35.1563 30.25 37.9688C31.2344 40.7813 33.0625 40.7813 33.0625 40.7813L28.1875 44.0156C28.1875 44.0156 24.3438 42.7969 23.5938 39.6094C23.5938 39.6094 18.7188 34.875 21.6719 31.5C21.6719 31.5 18.4375 28.7813 25.9844 25.4531C25.9844 25.4531 27.7657 18.8906 31.2813 21.8906C31.2813 21.8906 37.7969 17.0156 39.3907 21.375C39.3907 21.375 47.7813 20.6719 48.2969 25.2188C48.8125 29.7656 46.7969 30.8438 46.7969 30.8438C46.7969 30.8438 47.2657 34.5938 44.9219 34.7813L44.4063 31.3125Z" fill="#212226"/>
<path d="M21.1562 61.125C21.1562 61.125 16.75 60.0469 17.5 55.3594C18.25 50.625 24.4375 48.5156 37.1406 51.4687C38.6406 51.7969 39.8125 54.2812 38.8281 56.4375C38.8281 56.4375 42.9062 66.4687 44.1719 74.6719C45.4375 82.875 46.0937 91.4531 47.5 95.4375C48.8594 99.4219 47.7344 103.875 43.9375 103.875C40.1875 103.875 25.375 103.875 20.7812 103.875C16.1875 103.875 15.625 97.5 17.4531 90.8437C19.2344 84.2344 21.9062 65.9062 21.1562 61.125Z" fill="#444496"/>
<path d="M31.4688 58.5469C38.6875 60.0938 33.6719 74.4375 32.2188 78.5156C30.7657 82.6406 29.1719 86.2969 31.4688 89.4844C33.7657 92.6719 37.7969 96.2344 37.7969 96.2344L35.0782 101.953C35.0782 101.953 20.0313 100.031 16.4219 95.5781C12.8594 91.125 14.875 81.1875 17.9688 74.3438C21.0625 67.5 26.0782 57.4219 31.4688 58.5469Z" fill="white"/>
<path d="M34.6563 102.937C34.4688 102.844 34.4219 102.656 34.4688 102.469L38.1251 94.5C38.2188 94.3125 38.4063 94.2656 38.5938 94.3125C38.7813 94.4063 38.8282 94.5938 38.7813 94.7813L35.1251 102.75C35.0313 102.937 34.8438 102.984 34.6563 102.937Z" fill="#A77071"/>
<path d="M31.2344 130.078C31.2344 131.25 30.2969 132.234 29.0781 132.234C27.9063 132.234 26.9219 131.25 26.9219 130.078C26.9219 128.906 27.8594 127.922 29.0781 127.922C30.2969 127.969 31.2344 128.906 31.2344 130.078Z" fill="#59BCAB"/>
<path d="M17.8281 129.516C14.8281 129.516 12.3906 127.078 12.3906 124.078C12.3906 121.078 14.8281 118.641 17.8281 118.641C20.8281 118.641 23.2656 121.078 23.2656 124.078C23.2656 127.078 20.8281 129.516 17.8281 129.516ZM17.8281 121.5C16.375 121.5 15.25 122.672 15.25 124.078C15.25 125.484 16.4219 126.656 17.8281 126.656C19.2812 126.656 20.4062 125.484 20.4062 124.078C20.4062 122.672 19.2812 121.5 17.8281 121.5Z" fill="#FCC450"/>
<path d="M174.156 23.1563H172.375V24.9844C172.375 25.8281 171.719 26.4844 170.875 26.4844C170.031 26.4844 169.375 25.8281 169.375 24.9844V23.1563H167.547C166.703 23.1563 166.047 22.5 166.047 21.6563C166.047 20.8125 166.703 20.1562 167.547 20.1562H169.375V18.3281C169.375 17.4844 170.031 16.8281 170.875 16.8281C171.719 16.8281 172.375 17.4844 172.375 18.3281V20.1562H174.203C175.047 20.1562 175.703 20.8125 175.703 21.6563C175.656 22.5 175 23.1563 174.156 23.1563Z" fill="#59BCAB"/>
<path d="M188.875 13.6875C188.875 14.8594 187.937 15.8438 186.719 15.8438C185.547 15.8438 184.562 14.9062 184.562 13.6875C184.562 12.5156 185.547 11.5312 186.719 11.5312C187.891 11.5313 188.875 12.4687 188.875 13.6875Z" fill="#345185"/>
<path d="M77.9219 61.9219C71.4532 45.7031 74.7813 26.5312 87.9063 13.4062C94.2344 7.07813 101.969 3 110.125 1.26562L114.953 23.1562C104.781 25.3594 97.1876 34.4062 97.1876 45.2344C97.1876 48.1875 97.7501 51 98.7813 53.625L77.9219 61.9219Z" fill="#345185"/>
<path d="M87.9062 77.0625C87.5781 76.7344 87.2031 76.3594 86.875 75.9844L103.234 60.6562C107.359 65.0625 113.219 67.7812 119.734 67.7812C132.203 67.7812 142.328 57.6562 142.328 45.1875C142.328 36.2812 137.219 28.5937 129.719 24.9375L139.656 4.82812C143.969 6.9375 148 9.79687 151.562 13.3594C169.141 30.9375 169.141 59.4844 151.562 77.0625C134.031 94.6406 105.484 94.6406 87.9062 77.0625Z" fill="white"/>
<path d="M119.781 22.6406C118.094 22.6406 116.5 22.8281 114.953 23.1563L110.172 1.26563C120.016 -0.890621 130.469 0.281254 139.703 4.875L129.766 24.9844C126.766 23.4375 123.344 22.6406 119.781 22.6406Z" fill="#59BCAB"/>
<path d="M86.875 75.9844C82.9375 71.7656 79.9375 66.9844 77.9219 61.9219L98.7812 53.625C99.8125 56.25 101.359 58.6406 103.281 60.7031L86.875 75.9844Z" fill="#C1E4EE"/>
<path d="M222.39 35.2031V186.047C222.39 188.578 220.328 190.641 217.797 190.641H121.328C118.797 190.641 116.734 188.578 116.734 186.047V35.2031C116.734 32.6719 118.797 30.5625 121.328 30.5625H217.75C220.328 30.5625 222.39 32.625 222.39 35.2031Z" fill="#4FBECB"/>
<path d="M106.094 194.953H233.031C234.203 194.953 235.187 194.016 235.187 192.797C235.187 191.625 234.25 190.641 233.031 190.641H106.094C104.922 190.641 103.937 191.578 103.937 192.797C103.937 194.016 104.922 194.953 106.094 194.953Z" fill="#E2E2E1"/>
<path d="M222.39 35.1563V46.4062H116.734V35.1563C116.734 32.625 118.797 30.5156 121.328 30.5156H217.75C220.328 30.5625 222.39 32.625 222.39 35.1563Z" fill="#4FBECB"/>
<path d="M169.562 186.656C167.172 186.656 165.25 184.734 165.25 182.344C165.25 179.953 167.172 178.031 169.562 178.031C171.953 178.031 173.875 179.953 173.875 182.344C173.922 184.734 171.953 186.656 169.562 186.656Z" fill="#E6F2EA"/>
<path d="M128.922 40.125C127.937 40.125 127.14 39.3281 127.14 38.3438C127.14 37.3594 127.937 36.5625 128.922 36.5625C129.906 36.5625 130.703 37.3594 130.703 38.3438C130.656 39.3281 129.859 40.125 128.922 40.125Z" fill="#E6F2EA"/>
<path d="M134.5 40.125C133.515 40.125 132.719 39.3281 132.719 38.3438C132.719 37.3594 133.515 36.5625 134.5 36.5625C135.484 36.5625 136.281 37.3594 136.281 38.3438C136.281 39.3281 135.484 40.125 134.5 40.125Z" fill="#E6F2EA"/>
<path d="M220.75 46.4062H118.375V173.391H220.75V46.4062Z" fill="#D2EBF7"/>
<path d="M136.699 88.9688V73.9219H102.809V88.9688H136.699Z" fill="#A9DAE5"/>
<path d="M157.381 127.258V112.211H123.49V127.258H157.381Z" fill="#A9DAE5"/>
<path d="M147.064 108.137V93.0904H113.173V108.137H147.064Z" fill="#A9DAE5"/>
<path d="M214.891 51.75H123.484V68.8594H214.891V51.75Z" fill="#EDF6F4"/>
<path d="M212.125 54.1875H199.984V66.3281H212.125V54.1875Z" fill="#D2E8F2"/>
<path d="M155.688 54.9375H129.391V57.2812H155.688V54.9375Z" fill="#ACD8C8"/>
<path d="M155.688 59.1094H129.391V61.4531H155.688V59.1094Z" fill="#ACD8C8"/>
<path d="M147.109 63.2812H129.391V65.625H147.109V63.2812Z" fill="#ACD8C8"/>
<path opacity="0.5" d="M232.14 124.828H157.375V159.938H232.14V124.828Z" fill="#96CEB8"/>
<path d="M194.172 136.969H164.828V139.922H194.172V136.969Z" fill="#E6F2EA"/>
<path d="M187.187 142.219H164.828V145.172H187.187V142.219Z" fill="#E6F2EA"/>
<path d="M179.922 147.516H164.828V150.469H179.922V147.516Z" fill="#E6F2EA"/>
<path d="M190.797 147.516H181.797V150.469H190.797V147.516Z" fill="#E6F2EA"/>
<path d="M185.219 152.766H164.828V155.719H185.219V152.766Z" fill="#E6F2EA"/>
<path d="M150.484 132.891H123.484V159.891H150.484V132.891Z" fill="#9FD2BA"/>
<path d="M142.955 152.447C146.25 149.152 146.25 143.809 142.955 140.514C139.66 137.219 134.318 137.219 131.023 140.514C127.728 143.809 127.728 149.152 131.023 152.447C134.318 155.742 139.66 155.742 142.955 152.447Z" fill="#7CC39E"/>
<path d="M143.407 146.484C143.407 148.594 142.375 150.469 140.782 151.641C140.313 151.969 139.797 152.297 139.235 152.484C139 152.578 138.719 152.672 138.485 152.719C138.344 152.766 138.157 152.766 138.016 152.813C137.688 152.859 137.36 152.906 137.032 152.906C136.375 152.906 135.719 152.813 135.11 152.625C132.485 151.828 130.61 149.391 130.61 146.484C130.61 145.5 130.844 144.516 131.266 143.672C131.781 142.641 132.531 141.75 133.469 141.141C133.703 141 133.938 140.859 134.172 140.719C134.688 140.438 135.25 140.25 135.86 140.156C136.235 140.063 136.657 140.063 137.032 140.063C139.75 140.063 142.094 141.75 142.985 144.141C143.219 144.891 143.407 145.641 143.407 146.484Z" fill="#EFF4F4"/>
<path d="M136.985 147.234C136.563 147.234 136.235 146.906 136.235 146.484V142.359C136.235 141.938 136.563 141.609 136.985 141.609C137.406 141.609 137.735 141.938 137.735 142.359V146.484C137.735 146.906 137.406 147.234 136.985 147.234Z" fill="#C1D6CF"/>
<path d="M136.985 147.234C136.75 147.234 136.516 147.094 136.375 146.906C136.141 146.578 136.281 146.109 136.61 145.875L138.719 144.516C139.047 144.281 139.516 144.422 139.75 144.75C139.985 145.078 139.844 145.547 139.516 145.781L137.406 147.141C137.266 147.188 137.125 147.234 136.985 147.234Z" fill="#C1D6CF"/>
<path d="M214.891 73.9219H161.547V127.266H214.891V73.9219Z" fill="#98D5E9"/>
<path d="M188.219 102.984C184.469 102.984 181.422 99.9375 181.422 96.1875V92.1094C181.422 88.3594 184.469 85.3125 188.219 85.3125C191.969 85.3125 195.016 88.3594 195.016 92.1094V96.1875C195.016 99.9375 191.969 102.984 188.219 102.984Z" fill="#F8FCFA"/>
<path d="M188.219 99.5156C181.797 99.5156 176.313 103.266 173.734 108.703C172.234 111.891 174.531 115.547 178.047 115.547H198.438C201.953 115.547 204.25 111.891 202.75 108.703C200.172 103.266 194.641 99.5156 188.219 99.5156Z" fill="#F8FCFA"/>
<path d="M214.88 166.057V161.697L123.474 161.697V166.057L214.88 166.057Z" fill="#FFE1AB"/>
<path d="M221.734 72.1875V56.2969C222.859 56.2969 223.797 57.2344 223.797 58.3594V70.1719C223.797 71.2969 222.859 72.1875 221.734 72.1875Z" fill="#4FBECB"/>
<path d="M221.734 89.9531V74.0625C222.859 74.0625 223.797 75 223.797 76.125V87.9375C223.797 89.0156 222.859 89.9531 221.734 89.9531Z" fill="#4FBECB"/>
<path opacity="0.3" d="M177.766 46.4062L118.375 105.797V73.875L145.844 46.4062H177.766Z" fill="#F6FBFD"/>
<path opacity="0.3" d="M199.984 46.4062L118.375 128.016V112.078L184.047 46.4062H199.984Z" fill="#F6FBFD"/>
<path opacity="0.3" d="M139.562 137.813V151.5C139.562 152.063 139.188 152.578 138.672 152.719V190.594H121.375C118.844 190.594 116.781 188.531 116.781 186V109.922H135.484C137.266 109.922 138.672 111.375 138.672 113.109V136.594C139.188 136.781 139.562 137.25 139.562 137.813Z" fill="#385F82"/>
<path d="M126.391 103.594V208.313C126.391 210.094 124.938 211.5 123.203 211.5H68.2188C66.4844 211.5 65.0312 210.094 65.0312 208.313V103.594C65.0312 101.813 66.4844 100.406 68.2188 100.406H123.156C124.938 100.406 126.391 101.813 126.391 103.594Z" fill="#5BB98E"/>
<path d="M126.391 103.594V111.422H65.0312V103.594C65.0312 101.813 66.4844 100.406 68.2188 100.406H123.203C124.938 100.406 126.391 101.859 126.391 103.594Z" fill="#5BB98E"/>
<path d="M95.6875 208.781C94.0469 208.781 92.6875 207.422 92.6875 205.781C92.6875 204.141 94.0469 202.781 95.6875 202.781C97.3281 202.781 98.6875 204.141 98.6875 205.781C98.6875 207.422 97.375 208.781 95.6875 208.781Z" fill="#E6F2EA"/>
<path d="M84.5781 107.016C83.9219 107.016 83.3594 106.453 83.3594 105.797C83.3594 105.141 83.9219 104.578 84.5781 104.578C85.2344 104.578 85.7969 105.141 85.7969 105.797C85.7969 106.5 85.2812 107.016 84.5781 107.016Z" fill="#E6F2EA"/>
<path d="M101.875 106.266H89.7344C89.5 106.266 89.2656 106.078 89.2656 105.797C89.2656 105.516 89.4531 105.328 89.7344 105.328H101.875C102.109 105.328 102.344 105.516 102.344 105.797C102.344 106.078 102.109 106.266 101.875 106.266Z" fill="#E6F2EA"/>
<path d="M125.219 111.422H66.1562V199.594H125.219V111.422Z" fill="#D2EBF7"/>
<path d="M81.625 158.297H70.8906V161.672H81.625V158.297Z" fill="#EDF6F4"/>
<path d="M108.953 158.297H98.2188V161.672H108.953V158.297Z" fill="#EDF6F4"/>
<path d="M95.2656 158.297H84.5312V161.672H95.2656V158.297Z" fill="#EDF6F4"/>
<path d="M120.578 164.438H77.3594V176.297H120.578V164.438Z" fill="#EDF6F4"/>
<path d="M118.656 166.125H110.219V174.562H118.656V166.125Z" fill="#D5EAE4"/>
<path d="M93.3906 166.641H75.1094V168.281H93.3906V166.641Z" fill="#ACD8C8"/>
<path d="M93.3906 169.547H75.1094V171.188H93.3906V169.547Z" fill="#ACD8C8"/>
<path d="M87.3906 172.453H75.1094V174.094H87.3906V172.453Z" fill="#ACD8C8"/>
<path d="M102.578 179.25H70.9844V194.062H102.578V179.25Z" fill="#EDF6F4"/>
<path d="M91.2344 181.5H75.1094V183.141H91.2344V181.5Z" fill="#FFE1AB"/>
<path d="M87.3906 184.359H75.1094V186H87.3906V184.359Z" fill="#FFE1AB"/>
<path d="M83.4062 187.266H75.1094V188.906H83.4062V187.266Z" fill="#FFE1AB"/>
<path d="M89.3594 187.266H84.4375V188.906H89.3594V187.266Z" fill="#ACD8C8"/>
<path d="M86.3125 190.172H75.1094V191.812H86.3125V190.172Z" fill="#FFE1AB"/>
<path opacity="0.5" d="M109 116.906H62.5V154.828H109V116.906Z" fill="#FFE1AB"/>
<path d="M90.0156 147.891C96.5913 147.891 101.922 142.56 101.922 135.984C101.922 129.409 96.5913 124.078 90.0156 124.078C83.44 124.078 78.1094 129.409 78.1094 135.984C78.1094 142.56 83.44 147.891 90.0156 147.891Z" fill="#FCC450"/>
<path d="M99.0156 135.984C99.0156 138.984 97.5625 141.609 95.3594 143.25C94.7031 143.719 93.9531 144.141 93.1562 144.422C92.8281 144.563 92.4531 144.656 92.0781 144.75C91.8437 144.797 91.6094 144.844 91.4219 144.891C90.9531 144.984 90.4844 144.984 90.0156 144.984C89.0781 144.984 88.1875 144.844 87.3438 144.563C83.6875 143.438 81.0156 139.969 81.0156 135.938C81.0156 134.531 81.3437 133.219 81.9062 132C82.6094 130.547 83.6875 129.281 85.0469 128.391C85.375 128.156 85.7031 127.969 86.0312 127.828C86.7812 127.453 87.5781 127.172 88.375 127.031C88.9375 126.938 89.4531 126.891 90.0156 126.891C93.8594 126.891 97.1406 129.281 98.4062 132.656C98.8281 133.734 99.0156 134.859 99.0156 135.984Z" fill="#EFF4F4"/>
<path d="M90.0156 137.063C89.4531 137.063 88.9844 136.594 88.9844 136.031V130.266C88.9844 129.703 89.4531 129.234 90.0156 129.234C90.5781 129.234 91.0469 129.703 91.0469 130.266V136.031C91.0469 136.594 90.5781 137.063 90.0156 137.063Z" fill="#C1D6CF"/>
<path d="M90.0155 137.062C89.6873 137.062 89.3123 136.875 89.1248 136.594C88.7967 136.125 88.9842 135.469 89.453 135.141L92.453 133.266C92.9217 132.937 93.578 133.125 93.9061 133.594C94.2342 134.062 94.0467 134.719 93.578 135.047L90.578 136.922C90.3905 137.016 90.203 137.062 90.0155 137.062Z" fill="#C1D6CF"/>
<path opacity="0.3" d="M107.406 111.422L66.1562 152.625V130.5L85.2344 111.422H107.406Z" fill="#F6FBFD"/>
<path opacity="0.3" d="M122.828 111.422L66.1562 168.094V156.984L111.719 111.422H122.828Z" fill="#F6FBFD"/>
<g opacity="0.7">
<path opacity="0.7" d="M128.641 179.25H105.766V202.125H128.641V179.25Z" fill="#9FD2BA"/>
<path opacity="0.7" d="M117.156 191.719C115.562 191.719 114.25 190.406 114.25 188.812V187.078C114.25 185.484 115.562 184.172 117.156 184.172C118.75 184.172 120.063 185.484 120.063 187.078V188.812C120.109 190.406 118.797 191.719 117.156 191.719Z" fill="#F8FCFA"/>
<path opacity="0.7" d="M117.156 190.219C114.391 190.219 112.047 191.812 110.922 194.156C110.266 195.516 111.25 197.109 112.75 197.109H121.469C122.969 197.109 123.953 195.516 123.297 194.156C122.312 191.812 119.922 190.219 117.156 190.219Z" fill="#F8FCFA"/>
</g>
<path d="M119.969 116.906H113.172V161.672H119.969V116.906Z" fill="#9FD2BA"/>
<path d="M125.922 143.344V126.984C126.672 126.984 127.281 127.594 127.281 128.344V142.031C127.281 142.734 126.672 143.344 125.922 143.344Z" fill="#5BB98E"/>
<path opacity="0.3" d="M84.8594 100.406L79.2344 116.906L66.2969 154.828L65.0313 158.578V154.828H62.5469V116.906H65.0313V103.594C65.0313 101.813 66.4844 100.406 68.2188 100.406H84.8594V100.406Z" fill="#385F82"/>
<path d="M34.4219 215.812H135.016C136.187 215.812 137.172 214.875 137.172 213.656C137.172 212.484 136.234 211.5 135.016 211.5H34.4219C33.25 211.5 32.2656 212.438 32.2656 213.656C32.3125 214.875 33.25 215.812 34.4219 215.812Z" fill="#E2E2E1"/>
</svg>
