<svg width="232" height="236" viewBox="0 0 232 236" fill="none" xmlns="http://www.w3.org/2000/svg">
<path d="M85.8596 45.4844C81.1721 47.4531 63.0315 55 52.9065 74.5469C50.7502 78.7187 40.6252 98.2656 48.0783 115.516C57.969 138.391 88.0627 132.812 101.891 154.328C113.75 172.844 89.1408 191.031 99.7346 213.062C105.266 224.547 118.016 234.156 129.781 235.047C166.578 237.812 232.672 158.547 205.813 96.3437C186.219 51.1562 123.781 29.6875 85.8596 45.4844Z" fill="url(#paint0_linear_14_371)"/>
<path d="M160.859 81.0156L93.125 55.8906C91.0625 55.1406 88.8125 56.1718 88.0625 58.2343L42.3125 181.375C41.5625 183.437 42.5937 185.687 44.6562 186.437L112.391 211.562C114.453 212.312 116.703 211.281 117.453 209.219L163.203 86.0312C163.953 84.0156 162.922 81.7656 160.859 81.0156Z" fill="#2D548D"/>
<path opacity="0.09" d="M120.266 144.109C118.578 144.109 116.844 144.062 115.063 143.969C88.7658 142.516 67.297 130.797 57.6408 112.656C42.2189 83.6875 57.3595 43.3281 80.5626 30.625C92.2814 24.1562 102.453 24.3437 108.922 25.6562C119.985 27.8594 128.141 32.9687 131.891 40C135.922 47.5468 133.766 54.625 131.469 62.0781C129.406 68.7812 127.297 75.6718 129.828 83.125C132.078 89.7812 137.938 91.8437 144.172 94.0468C150.5 96.2968 157.063 98.5937 160.578 105.859C164.281 113.547 163.813 124.047 159.547 130.375C153.735 138.812 138.36 144.109 120.266 144.109ZM101.61 25.4687C95.8439 25.4687 88.672 26.7812 80.8439 31.0937C57.8751 43.7031 42.8751 83.7343 58.1564 112.422C67.7189 130.422 89.047 142 115.156 143.453C135.219 144.578 152.891 139.187 159.125 130.094C163.297 123.953 163.766 113.641 160.11 106.141C156.688 99.0625 150.266 96.8125 144.031 94.6093C137.703 92.3593 131.703 90.25 129.36 83.3593C126.781 75.7187 128.938 68.7343 131 61.9375C133.25 54.5781 135.406 47.5937 131.469 40.2343C127.813 33.3437 119.75 28.3281 108.875 26.1718C106.766 25.75 104.328 25.4687 101.61 25.4687Z" fill="#AAAAD5"/>
<path opacity="0.2" d="M144.453 74.9219L136.953 79.9375L71.4688 123.906L61.1094 130.891L75.3594 92.4062L85.7656 85.4219L109.25 69.625L116.75 64.6094L144.453 74.9219Z" fill="#EEEDF3"/>
<path opacity="0.2" d="M159.359 80.4531L151.859 85.4687L63.7813 144.625L53.375 151.562L58.4375 138.016L68.7969 131.078V131.031L142.109 81.8593L149.609 76.7969L159.359 80.4531Z" fill="#EEEDF3"/>
<path d="M160.859 81.0156L159.359 80.4531L149.609 76.8437L144.453 74.9219L116.75 64.6562L93.1251 55.8906C91.1094 55.1406 88.8126 56.1718 88.0626 58.2343L75.3594 92.4531L61.0626 130.937L58.3907 138.109L53.3751 151.656L42.3126 181.469C42.1719 181.844 42.1251 182.219 42.0782 182.594C41.9376 184.281 42.9688 185.922 44.6563 186.531L57.2188 191.219L66.6876 194.734L91.7188 204.016L100.859 207.391L112.391 211.656C114.406 212.406 116.703 211.375 117.453 209.359L162.359 88.4218L163.203 86.1719C163.953 84.0156 162.922 81.7656 160.859 81.0156ZM154.438 88.6562L153.5 91.2343L114.828 195.437C114.406 196.516 113.188 197.125 112.063 196.703L103.578 193.562L93.3126 189.766L72.1251 181.891L62.4219 178.281L54.6876 175.422C53.8438 175.094 53.3282 174.344 53.3282 173.5C53.3282 173.219 53.3282 172.937 53.4688 172.656L63.8751 144.672L68.8907 131.125L71.5626 123.953L85.8594 85.4687L93.1251 65.9218C93.5469 64.8437 94.7657 64.2343 95.8438 64.6562L109.344 69.6718L137.047 79.9375L142.203 81.8593L151.953 85.4687L153.219 85.9375C154.297 86.3594 154.859 87.5781 154.438 88.6562Z" fill="#EEEDF3"/>
<path d="M76.625 193.938C74.7031 193.234 73.7187 191.078 74.4219 189.156C75.125 187.234 77.2812 186.25 79.2031 186.953C81.125 187.656 82.1093 189.812 81.4062 191.734C80.6562 193.703 78.5 194.641 76.625 193.938Z" fill="#C9C7D9"/>
<path opacity="0.1" d="M121.906 8.35935L27.3595 39.6719C25.0627 40.4219 23.8439 42.9062 24.5939 45.1562L33.7814 72.8125C34.5314 75.1094 37.0158 76.3281 39.2658 75.5781L48.5939 72.4844L53.1408 70.9844C54.3127 71.7344 57.2189 73.7031 58.3908 74.4062C59.4689 75.0156 60.8752 74.5469 61.3908 73.4219C61.9533 72.1562 63.1252 68.875 63.5939 67.5625L86.5627 59.9219L133.813 44.2656C136.11 43.5156 137.328 41.0312 136.578 38.7812L127.391 11.125C126.641 8.8281 124.203 7.60935 121.906 8.35935Z" fill="#3F3F3F"/>
<path d="M121.906 1.04686L20.4687 34.6562C18.0312 35.4531 16.7187 38.125 17.5156 40.5625L27.3594 70.2344C28.1562 72.6719 30.8281 73.9844 33.2656 73.1875L43.25 69.8594L48.125 68.2656C49.3437 69.1094 52.4844 71.1719 53.75 71.9219C54.875 72.5781 56.4219 72.0625 56.9844 70.8437C57.5469 69.4844 58.8594 65.9219 59.3281 64.5625L83.9844 56.4062L134.703 39.5781C137.141 38.7812 138.453 36.1094 137.656 33.6719L127.812 3.99999C127.016 1.56249 124.391 0.249987 121.906 1.04686Z" fill="url(#paint1_linear_14_371)"/>
<path d="M46.1561 48.5781C46.8592 47.3594 47.0467 45.8594 46.578 44.4062L45.7811 42.0156C44.8905 39.3437 42.078 37.7031 39.3592 38.5C36.5467 39.3437 35.0467 42.2969 35.9374 45.0625L36.7811 47.6875C37.2499 49.1406 38.328 50.2187 39.5936 50.7812C36.6874 52.9844 34.9999 56.5 35.2342 60.2031C35.328 61.6562 36.7811 62.5469 38.1405 62.125L53.9842 56.875C55.3436 56.4062 55.953 54.8125 55.203 53.5937C53.2342 50.4062 49.8124 48.5781 46.1561 48.5781Z" fill="white"/>
<path d="M84.3124 23.5469L64.1093 30.25C62.4686 30.8125 61.578 32.5937 62.0936 34.2344L65.3749 44.1719C65.9374 45.8125 67.7186 46.7031 69.3593 46.1875L71.328 45.5312C71.328 45.5312 75.078 48.0625 76.3436 48.8125C77.2811 49.3281 78.5468 48.9531 78.9686 47.9219C79.578 46.5625 81.078 42.2969 81.078 42.2969L89.5624 39.4844C91.203 38.9219 92.0936 37.1406 91.578 35.5L88.2968 25.5625C87.7343 23.875 85.953 22.9844 84.3124 23.5469Z" fill="white"/>
<path d="M67.6249 34.8437C66.9687 34.9844 66.2656 34.6562 66.0781 34C65.8437 33.2969 66.2187 32.5469 66.9218 32.3594L83.3281 26.9219C83.9843 26.6875 84.7812 27.0625 84.9687 27.7656C85.2031 28.4687 84.8281 29.2187 84.1249 29.4062L67.7187 34.8437C67.6718 34.8437 67.6718 34.8437 67.6249 34.8437Z" fill="#E2E1E1"/>
<path d="M69.0312 39.1562C68.3749 39.2969 67.6718 38.9687 67.4843 38.3125C67.2499 37.6094 67.6249 36.8594 68.3281 36.6719L84.7343 31.2344C85.3906 31 86.1874 31.375 86.3749 32.0781C86.6093 32.7812 86.2343 33.5312 85.5312 33.7187L69.1249 39.1562C69.1249 39.1094 69.0781 39.1562 69.0312 39.1562Z" fill="#E2E1E1"/>
<path d="M70.4843 43.4219C69.8281 43.5625 69.1249 43.2344 68.9374 42.5781C68.7031 41.875 69.0781 41.125 69.7812 40.9375L77.1874 38.5C77.8437 38.2656 78.5937 38.6406 78.828 39.3437C79.0624 40.0469 78.6874 40.7969 77.9843 40.9844L70.5781 43.4219C70.5312 43.4219 70.5312 43.4219 70.4843 43.4219Z" fill="#E2E1E1"/>
<path d="M126.406 28.2344C125.75 26.2187 124.438 24.5312 122.844 23.4062L122.141 21.25C120.922 17.6406 117.359 15.5312 113.703 16.0469L113.516 15.4375C113.281 14.7344 112.531 14.3594 111.828 14.5937C111.125 14.8281 110.75 15.5781 110.984 16.2812L111.172 16.8906C107.938 18.625 106.344 22.4687 107.516 26.0781L108.219 28.2344C107.609 30.1094 107.563 32.2187 108.219 34.2344L108.547 35.1719C108.688 35.6406 109.203 35.9219 109.672 35.7344L113.281 34.5156C113.328 34.7969 113.469 35.0781 113.797 35.1719C115.297 35.6875 116.984 35.6875 118.625 35.1719C120.266 34.6562 121.578 33.625 122.516 32.3125C122.703 32.0312 122.703 31.7031 122.563 31.4687L126.172 30.25C126.641 30.1094 126.922 29.5937 126.734 29.125L126.406 28.2344Z" fill="white"/>
<path d="M111.031 34.1875C111.734 36.2969 110.563 38.6406 108.453 39.3437C106.344 40.0469 104 38.875 103.297 36.7656C102.594 34.6562 103.766 32.3125 105.875 31.6094C108.031 30.9062 110.328 32.0312 111.031 34.1875Z" fill="#E83C3B"/>
<path opacity="0.1" d="M223.906 88L197.984 84.9062C196.859 84.7656 195.875 85.5625 195.734 86.6875L192.641 112.609C192.5 113.734 193.297 114.719 194.422 114.859L220.344 117.953C221.469 118.094 222.453 117.297 222.594 116.172L225.687 90.25C225.828 89.1719 225.031 88.1406 223.906 88Z" fill="#3F3F3F"/>
<path d="M226.953 114.344L196.672 110.734C196.156 110.687 195.781 110.219 195.875 109.703L199.484 79.4219C199.531 78.9062 200 78.5312 200.515 78.625L230.797 82.2344C231.312 82.2812 231.687 82.75 231.594 83.2656L227.984 113.547C227.937 114.016 227.469 114.391 226.953 114.344Z" fill="#F8AA09"/>
<path d="M199.109 107.406L202.109 82.3281C202.156 82 202.437 81.8125 202.719 81.8125L227.797 84.8125C228.125 84.8594 228.312 85.1406 228.312 85.4219L225.312 110.5C225.265 110.828 224.984 111.016 224.703 111.016L199.625 108.016C199.297 108.016 199.109 107.734 199.109 107.406Z" fill="#FBBA38"/>
<path d="M214.344 98.5938L211.437 100.891C210.922 101.313 210.125 101.219 209.703 100.703C209.281 100.188 208.531 100.094 207.969 100.516L203.703 103.891C202.859 104.547 203.234 105.953 204.312 106.094L204.828 106.141L214.906 107.359L220.578 108.016C221.656 108.156 222.359 106.891 221.703 106.047L216.078 98.7813C215.656 98.2656 214.859 98.1719 214.344 98.5938Z" fill="#EE9F05"/>
<path d="M209.14 93.7188C209 94.8906 207.922 95.7344 206.75 95.5938C205.578 95.4531 204.734 94.375 204.875 93.2031C205.015 92.0313 206.093 91.1875 207.265 91.3281C208.437 91.4688 209.281 92.5469 209.14 93.7188Z" fill="#EE9F05"/>
<path opacity="0.1" d="M60.0313 161.547C59.0469 158.406 55.7188 156.672 52.5781 157.656L14.3281 169.75C11.1875 170.734 9.45315 174.062 10.4375 177.203L18.3125 202.094C19.2969 205.234 22.625 206.969 25.7656 205.984L29.5156 204.813C29.5156 204.813 36.5 209.641 38.9375 211.094C40.6719 212.125 43.0625 211.375 43.9063 209.5C45.0781 206.922 47.9844 198.953 47.9844 198.953L64.0157 193.891C67.1563 192.906 68.8906 189.578 67.9063 186.438L60.0313 161.547Z" fill="#3F3F3F"/>
<path d="M45.9688 151.984L4.95318 164.969C1.57818 166.047 -0.249947 169.609 0.781303 172.984L9.2188 199.703C10.2969 203.078 13.8594 204.906 17.2344 203.875L21.2188 202.609C21.2188 202.609 28.7188 207.813 31.2969 209.359C33.1719 210.484 35.7501 209.641 36.6407 207.672C37.9063 204.906 41.0001 196.328 41.0001 196.328L58.2032 190.891C61.5782 189.813 63.4063 186.25 62.3751 182.875L53.9376 156.156C52.9532 152.781 49.3438 150.906 45.9688 151.984Z" fill="url(#paint2_linear_14_371)"/>
<path d="M46.1096 165.813L12.8283 176.359C11.7502 176.688 10.5783 176.125 10.2502 175C9.92208 173.922 10.5315 172.75 11.6096 172.422L44.8908 161.875C45.969 161.547 47.1408 162.109 47.469 163.234C47.7971 164.313 47.1877 165.484 46.1096 165.813Z" fill="#EDB7D5"/>
<path d="M49.0625 175.234L15.7812 185.781C14.7031 186.109 13.5312 185.547 13.2031 184.422C12.875 183.344 13.4843 182.172 14.5625 181.844L47.8437 171.297C48.9218 170.969 50.0937 171.531 50.4218 172.656C50.75 173.688 50.1406 174.859 49.0625 175.234Z" fill="#EDB7D5"/>
<path d="M33.7812 190.375L18.7812 195.109C17.7031 195.437 16.5312 194.828 16.2031 193.75C15.875 192.672 16.4843 191.5 17.5625 191.172L32.5625 186.438C33.6406 186.109 34.8125 186.719 35.1406 187.797C35.4687 188.875 34.8593 190.047 33.7812 190.375Z" fill="#EDB7D5"/>
<path opacity="0.1" d="M129.828 105.438C129.266 103.047 126.078 102.531 124.766 104.641L119.516 113.125L116.563 100.797C115.953 98.3125 113.469 96.7656 110.984 97.375L77.0938 105.438C74.6094 106.047 73.0625 108.531 73.6719 111.016L81.7344 144.906C82.3438 147.391 84.8281 148.938 87.3125 148.328L121.203 140.266C123.688 139.656 125.234 137.172 124.625 134.688L121.672 122.359L130.156 127.609C132.266 128.922 134.891 127 134.281 124.609L129.828 105.438Z" fill="#3F3F3F"/>
<path d="M128.797 95.4062L123.172 104.547L120.031 91.3281C119.375 88.6562 116.703 87.0156 114.031 87.625L77.6563 96.2969C74.9844 96.9531 73.3438 99.625 73.9532 102.297L82.625 138.672C83.2813 141.344 85.9532 142.984 88.625 142.375L125 133.703C127.672 133.047 129.313 130.375 128.703 127.703L125.563 114.484L134.703 120.109C136.953 121.516 139.766 119.453 139.156 116.875L134.234 96.2969C133.625 93.7187 130.203 93.1562 128.797 95.4062Z" fill="#E83B5B"/>
<path d="M94.8594 105.203L108.172 113.359L99.9688 126.672" fill="white"/>
<path d="M153.886 157.938L98.571 166.749L103.548 197.994L158.864 189.183L153.886 157.938Z" fill="#E83C3B"/>
<path d="M128.703 178L153.875 157.984L98.5627 166.797L128.703 178Z" fill="#EE7375"/>
<path d="M165.125 211.609H196.766C197.703 211.609 198.5 210.812 198.5 209.875C198.5 208.937 197.703 208.141 196.766 208.141H165.125C164.187 208.141 163.391 208.937 163.391 209.875C163.391 210.859 164.141 211.609 165.125 211.609Z" fill="#E2E2E1"/>
<path d="M175.578 204.25L174.078 195.109L178.203 193.844L178.859 203.594L175.578 204.25Z" fill="#D7DDE9"/>
<path d="M179 202.609C179.281 202.656 179.516 202.75 179.75 202.937C181.203 204.156 185.656 206.312 187.906 206.641C190.344 207.016 190.484 208.187 187.016 208.187C183.594 208.187 181.062 207.859 179.562 207.906C178.016 207.953 178.437 208.187 174.687 208.187C171.781 208.187 172.719 204.484 173.75 202.797C174.078 202.281 174.5 202 175.109 202.047L179 202.609Z" fill="#ED9558"/>
<path d="M162.312 195.719L168.031 188.453L171.734 190.656L165.031 197.687L162.312 195.719Z" fill="#D7DDE9"/>
<path d="M165.875 197.125C166.016 197.359 166.156 197.594 166.156 197.875C166.25 199.75 167.703 204.625 169.437 206.172C171.172 207.766 170.047 208.141 167.234 206.828C164.141 205.375 163.437 202.234 162.359 201.156C161.281 200.078 161.375 200.5 158.844 197.734C156.875 195.625 160.203 193.797 162.172 193.375C162.781 193.234 163.25 193.375 163.625 193.891L165.875 197.125Z" fill="#ED9558"/>
<path d="M159.735 41.2187C159.735 41.2187 158.61 48.7187 160.766 52.1875C162.922 55.6562 163.25 56.1719 163.25 56.1719" fill="#ED8C61"/>
<path d="M165.266 59.5C164.656 59.875 163.953 60.0625 163.297 60.0625C161.985 60.0625 160.672 59.4062 159.969 58.1406C159.922 58.0937 159.547 57.4375 157.531 54.25C156.125 52 155.656 48.9531 155.61 46.2812C155.516 43.6562 155.797 41.4062 155.938 40.6562C156.266 38.5469 158.235 37.0469 160.391 37.375C162.5 37.7031 164 39.6719 163.672 41.8281C163.485 42.9531 163.438 44.2656 163.438 45.4844C163.438 46.75 163.531 47.9687 163.719 48.8594C163.813 49.375 163.953 49.8437 164.141 50.125C166.344 53.6406 166.672 54.2031 166.672 54.2031C167.75 56.0312 167.141 58.4219 165.266 59.5Z" fill="#F6AD86"/>
<path d="M150.875 102.438C151.672 91.2344 147.922 63.4375 146 52.375C145.719 50.6875 146.985 49.1406 148.719 49.1406H171.735C172.953 49.1406 174.078 49.9844 174.406 51.1563C177.031 61.1875 178.719 102.391 178.719 102.391H150.875V102.438Z" fill="#E8E8E8"/>
<path d="M188.891 79.1406C188.516 77.0312 185.938 71.6406 183.078 66.0156C180.031 60.0625 176.609 53.7812 175.016 50.9687C174.125 49.375 172.109 48.8125 170.516 49.6562C168.922 50.5469 168.359 52.5625 169.203 54.1562C171.641 58.5625 174.125 63.2031 176.328 67.375C178.813 72.1562 181.203 75.0625 182.188 77.4062C180.406 78.9531 175.953 79.0937 172.438 78.8594C171.453 78.7656 167.703 78.4844 165.219 80.7812C164.234 81.6719 163.109 83.3125 163.203 85.8906C163.297 87.6719 163.531 88.375 165.125 89.1719C165.781 89.5 166.625 89.5469 167.328 89.5C169.156 89.2656 169.297 88.2812 169.297 86.1719C169.297 84.6719 170.094 83.1719 170.094 83.1719C170.094 83.1719 175.438 84.4844 179.891 85.0469C184.344 85.6094 186.172 84.7187 187.813 82.8906C188.75 81.8125 189.125 80.4531 188.891 79.1406Z" fill="#F6AD86"/>
<path d="M152.094 120.531C152.094 120.531 148.719 114.344 150.875 102.438H178.672C178.672 102.438 179.047 111.484 178.438 120.531H152.094Z" fill="#3A63A9"/>
<path d="M183.031 66.0156L179.797 66.6719L176.328 67.375C174.172 63.2031 171.64 58.5156 169.203 54.1563C168.312 52.5625 168.922 50.5469 170.515 49.6563C172.109 48.7656 174.125 49.375 175.015 50.9688C176.562 53.7813 179.984 60.0625 183.031 66.0156Z" fill="#ED8C61"/>
<path d="M151.766 51.7656C151.344 49.9844 149.516 48.9063 147.781 49.375C139.813 51.3438 134.281 53.125 130.438 54.7656C121.578 58.5156 121.672 61.2813 121.672 62.6875C121.719 64.2813 122.047 67.4219 141.125 74.3594C141.125 74.9219 140.516 77.0781 140.141 77.7813C139.25 79.375 140.188 80.9219 141.125 82.4688C141.453 82.9844 142.203 83.6406 143.094 83.6406C144.266 83.6406 145.719 82.1406 145.906 80.9219C146.609 76.4687 146.516 73.8438 146.281 73.3281C146.281 73.2813 146.234 73.2344 146.234 73.1875C146.141 73.0469 146.094 72.9063 146 72.7656C145.953 72.6719 145.859 72.625 145.813 72.5313C145.719 72.4375 145.672 72.3438 145.578 72.2969C145.438 72.1563 145.297 72.0625 145.156 71.9688C145.109 71.9688 145.109 71.9219 145.063 71.9219C144.828 71.7813 144.594 71.6406 144.359 71.5469C137.891 68.875 131.844 64.5625 129.172 62.6875C130.109 62.1719 131.422 61.5156 133.063 60.9063C137.141 59.2656 143.141 57.3438 149.281 55.8438C151.109 55.3281 152.188 53.5469 151.766 51.7656Z" fill="#F6AD86"/>
<path d="M183.547 64.5625L179.094 65.4062L175.625 66.0625L172.672 66.625C168.875 59.1719 167.984 57.4844 167.844 54.9531C167.703 52.0937 168.453 50.6406 170.328 49.6094C172.203 48.5781 174.547 49.2344 175.578 51.1094C175.672 51.25 179.703 57.0156 183.547 64.5625Z" fill="#E8E8E8"/>
<path d="M195.641 157.281C195.219 160 193.766 162.953 191.703 166.563C188.235 172.563 182.938 179.266 178.157 184.844C174.828 188.734 171.781 192.109 169.86 194.406C169.016 195.391 168.36 196.188 167.985 196.703L164.047 191.641C165.5 189.578 166.86 186.813 168.547 184.234C168.594 184.188 168.641 184.094 168.688 184.047C171.875 179.219 175.297 173.781 178.016 168.813C178.11 168.625 178.203 168.484 178.297 168.297C181.203 163.047 183.36 158.406 183.782 155.688C184.532 150.859 177.266 135.766 170.094 122.453C169.297 120.906 168.453 119.406 167.657 117.953C167.375 117.438 167.235 116.922 167.188 116.359C167 113.922 168.781 111.109 170.985 109.891C173.656 108.391 177.125 107.641 178.625 110.313C181.672 115.844 197.469 145.422 195.641 157.281Z" fill="#3A63A9"/>
<path d="M178.156 184.844C174.828 188.734 171.781 192.109 169.859 194.406C169.531 191.687 169.203 188.734 168.875 185.734C168.828 185.172 168.734 184.562 168.688 184C171.875 179.172 175.297 173.734 178.016 168.766C178.203 173.687 178.203 179.453 178.156 184.844Z" fill="#2D548D"/>
<path d="M177.453 158.781C176.094 147.672 166.766 117.812 165.312 114.531C164.094 111.719 157.344 111.109 154.531 112.375C151.719 113.594 150.453 116.875 151.672 119.687C155.422 128.219 166.062 151.047 167.141 159.109C167.75 163.937 168.594 173.641 170.094 181.937C171.172 187.703 172.25 193.328 173.047 197.406C173.75 200.969 173.75 200.312 173.797 200.641L180.453 199.609C180.453 199.609 179.047 171.906 177.453 158.781Z" fill="#3A63A9"/>
<path d="M149.328 55.75C143.187 57.25 137.187 59.1719 133.109 60.8125L130.391 54.7188C134.234 53.125 139.766 51.2969 147.734 49.3281C149.516 48.9063 151.297 49.9844 151.719 51.7188C152.187 53.5469 151.109 55.3281 149.328 55.75Z" fill="#ED8C61"/>
<path d="M147.828 49.2344C149.938 48.9063 151.485 49.9375 152.047 52C152.61 54.0625 151.203 55.6563 149.328 56.7344C147.078 58.0469 146.281 58.3281 136.766 61.6094L131.469 54.2969C143.656 49.5625 144.266 49.75 147.828 49.2344Z" fill="#E8E8E8"/>
<path d="M163.672 48.8594C163.485 48.8594 163.297 48.8594 163.156 48.8594C160.297 48.8594 157.672 47.9219 155.61 46.2812C155.516 43.6562 155.797 41.4062 155.938 40.6562C156.266 38.5469 158.235 37.0469 160.391 37.375C162.5 37.7031 164 39.6719 163.672 41.8281C163.485 42.9531 163.438 44.2656 163.438 45.4844C163.344 46.7031 163.438 47.9219 163.672 48.8594Z" fill="#ED8C61"/>
<path d="M174.688 34.9844C173.141 42.1563 169.156 47.4063 162.266 47.4063C155.422 47.4063 151.109 42.2031 149.844 34.9844C148.719 28.2344 155.422 21.625 162.266 21.625C169.203 21.5781 176.141 28.2813 174.688 34.9844Z" fill="#F6AD86"/>
<path d="M175.625 200.687L175.578 200.5C173.703 188.875 170.844 171.344 169.438 160.281C168.406 152.219 158.422 128.312 154.672 119.781C154.625 119.734 154.625 119.641 154.625 119.594C154.625 119.547 154.625 119.547 154.578 119.5C153.969 117.859 152.141 111.766 153.875 102.156L154.438 102.25C152.703 111.719 154.531 117.672 155.094 119.312C155.094 119.359 155.141 119.406 155.141 119.453C155.141 119.5 155.141 119.547 155.188 119.594C158.938 128.125 168.922 152.125 169.953 160.234C171.406 171.25 174.219 188.828 176.094 200.453L176.141 200.641L175.625 200.687Z" fill="#658BC1"/>
<path d="M166.719 49.1875C166.719 50.875 166.062 53.6875 161.656 53.6875C158.469 53.6875 154.437 52.3281 152.937 49.75L152.609 49.1875H166.719V49.1875Z" fill="#C8D6DB"/>
<path d="M153.922 49.1875C155.094 51.25 158.609 52.5625 161.656 52.5625C164.703 52.5625 165.594 51.0625 165.594 49.1875H153.922Z" fill="#F6AD86"/>
<path d="M170.609 83.8281C170.609 83.7812 170.797 81.9062 168.828 79.1875L170.656 78.1094C172.953 81.5312 172.719 83.9687 172.719 84.1094L170.609 83.8281Z" fill="#82AACE"/>
<path d="M169.203 78.1562C170.234 77.6875 171.594 77.9219 172.297 78.6719C172.953 79.4219 172.672 80.4531 171.594 80.9219C170.562 81.3906 169.203 81.1562 168.5 80.4062C167.844 79.6094 168.125 78.625 169.203 78.1562Z" fill="#4E7DB0"/>
<path d="M174.406 25.7969C170.656 19.75 161.422 19.2812 159.641 19.375C158.703 19.4219 156.641 19.9844 155.75 21.3906C155.703 20.4062 155.75 19.5156 155.75 19.5156C154.953 20.5 154.813 21.3437 154.953 22C154.391 21.25 154.016 20.4531 154.016 20.4531C153.875 21.4844 154.156 22.0937 154.578 22.4219C152.047 23.0312 148.813 26.5937 149.938 33.9062C150.406 37.0937 157.625 34.6562 159.641 31.4687C161 33.6719 163.719 34.1406 163.719 34.1406C162.781 33.2031 161.938 31.7969 161.281 30.3906C165.125 32.7344 170.234 35.2656 170.844 36.8125C170.844 36.8125 171.969 34.3281 171.125 32.7344C171.125 32.7344 174.172 33.4844 174.547 36.5312C174.5 36.4375 178.391 32.2656 174.406 25.7969Z" fill="#424344"/>
<path d="M165.43 102.141L164.875 102.231L167.91 121.018L168.466 120.929L165.43 102.141Z" fill="#658BC1"/>
<path d="M167.609 117.437L167.516 116.875C167.516 116.875 168.688 116.687 169.297 115.797C169.672 115.281 169.766 114.625 169.672 113.875L167.75 101.969L168.313 101.875L170.234 113.781C170.375 114.719 170.234 115.516 169.766 116.125C169.016 117.25 167.656 117.437 167.609 117.437Z" fill="#658BC1"/>
<path d="M149.469 34.2344C148.906 35.4531 149 36.7656 149.516 37.8906C150.125 39.2031 152.047 39.1094 152.609 37.7969L154.203 34.2344C154.812 32.9219 153.594 31.4688 152.188 31.8438C151.016 32.2188 149.984 33.0625 149.469 34.2344Z" fill="#F6AD86"/>
<defs>
<linearGradient id="paint0_linear_14_371" x1="220.628" y1="214.258" x2="-17.1863" y2="-4.20919" gradientUnits="userSpaceOnUse">
<stop stop-color="#6FC7DA"/>
<stop offset="0.3693" stop-color="#0D71B9"/>
<stop offset="0.7613" stop-color="#9E1460"/>
<stop offset="1" stop-color="#E7267A"/>
</linearGradient>
<linearGradient id="paint1_linear_14_371" x1="120.597" y1="82.7444" x2="17.4884" y2="-26.6201" gradientUnits="userSpaceOnUse">
<stop stop-color="#6FC7DA"/>
<stop offset="1" stop-color="#9E1460"/>
</linearGradient>
<linearGradient id="paint2_linear_14_371" x1="71.5403" y1="184.12" x2="12.8787" y2="177.704" gradientUnits="userSpaceOnUse">
<stop stop-color="#6FC7DA"/>
<stop offset="0.6927" stop-color="#9E1460"/>
<stop offset="1" stop-color="#E7267A"/>
</linearGradient>
</defs>
</svg>
